<?xml version="1.0" standalone="no"?><svg xmlns="http://www.w3.org/2000/svg" viewBox="0 0 1440 320"><path fill="#ffd700" fill-opacity="1" d="M0,96L40,112C80,128,160,160,240,192C320,224,400,256,480,250.7C560,245,640,203,720,170.7C800,139,880,117,960,138.7C1040,160,1120,224,1200,234.7C1280,245,1360,203,1400,181.3L1440,160L1440,320L1400,320C1360,320,1280,320,1200,320C1120,320,1040,320,960,320C880,320,800,320,720,320C640,320,560,320,480,320C400,320,320,320,240,320C160,320,80,320,40,320L0,320Z"></path></svg>